<mxfile host="app.diagrams.net" modified="2023-11-09T06:18:32.242Z" agent="Mozilla/5.0 (Windows NT 10.0; Win64; x64) AppleWebKit/537.36 (KHTML, like Gecko) Chrome/117.0.0.0 Safari/537.36" etag="e6s3dkMlctFxFoiStcSN" version="22.1.0" type="device">
  <diagram id="C5RBs43oDa-KdzZeNtuy" name="Page-1">
    <mxGraphModel dx="1434" dy="784" grid="1" gridSize="10" guides="1" tooltips="1" connect="1" arrows="1" fold="1" page="1" pageScale="1" pageWidth="827" pageHeight="1169" math="0" shadow="0">
      <root>
        <mxCell id="WIyWlLk6GJQsqaUBKTNV-0" />
        <mxCell id="WIyWlLk6GJQsqaUBKTNV-1" parent="WIyWlLk6GJQsqaUBKTNV-0" />
        <mxCell id="kwb_6JemSEw58xybTESs-5" style="edgeStyle=orthogonalEdgeStyle;rounded=0;orthogonalLoop=1;jettySize=auto;html=1;exitX=0.5;exitY=0.5;exitDx=0;exitDy=15;exitPerimeter=0;entryX=0.5;entryY=0;entryDx=0;entryDy=0;" edge="1" parent="WIyWlLk6GJQsqaUBKTNV-1" source="kwb_6JemSEw58xybTESs-0" target="kwb_6JemSEw58xybTESs-4">
          <mxGeometry relative="1" as="geometry" />
        </mxCell>
        <mxCell id="kwb_6JemSEw58xybTESs-0" value="Start Program" style="html=1;dashed=0;whiteSpace=wrap;shape=mxgraph.dfd.start" vertex="1" parent="WIyWlLk6GJQsqaUBKTNV-1">
          <mxGeometry x="40" y="40" width="90" height="30" as="geometry" />
        </mxCell>
        <mxCell id="kwb_6JemSEw58xybTESs-24" style="edgeStyle=orthogonalEdgeStyle;rounded=0;orthogonalLoop=1;jettySize=auto;html=1;exitX=0.5;exitY=1;exitDx=0;exitDy=0;exitPerimeter=0;entryX=0.5;entryY=0.125;entryDx=0;entryDy=0;entryPerimeter=0;" edge="1" parent="WIyWlLk6GJQsqaUBKTNV-1" source="kwb_6JemSEw58xybTESs-1" target="kwb_6JemSEw58xybTESs-23">
          <mxGeometry relative="1" as="geometry" />
        </mxCell>
        <mxCell id="kwb_6JemSEw58xybTESs-1" value="Pre-game cmd loop" style="html=1;dashed=0;whiteSpace=wrap;shape=mxgraph.dfd.loop" vertex="1" parent="WIyWlLk6GJQsqaUBKTNV-1">
          <mxGeometry x="45" y="210" width="80" height="30" as="geometry" />
        </mxCell>
        <mxCell id="kwb_6JemSEw58xybTESs-7" value="No" style="edgeStyle=orthogonalEdgeStyle;rounded=0;orthogonalLoop=1;jettySize=auto;html=1;" edge="1" parent="WIyWlLk6GJQsqaUBKTNV-1" source="kwb_6JemSEw58xybTESs-4">
          <mxGeometry relative="1" as="geometry">
            <mxPoint x="175" y="130" as="targetPoint" />
          </mxGeometry>
        </mxCell>
        <mxCell id="kwb_6JemSEw58xybTESs-4" value="User has a profile" style="shape=rhombus;html=1;dashed=0;whiteSpace=wrap;perimeter=rhombusPerimeter;" vertex="1" parent="WIyWlLk6GJQsqaUBKTNV-1">
          <mxGeometry x="40" y="100" width="90" height="60" as="geometry" />
        </mxCell>
        <mxCell id="kwb_6JemSEw58xybTESs-6" value="Yes" style="edgeStyle=orthogonalEdgeStyle;rounded=0;orthogonalLoop=1;jettySize=auto;html=1;exitX=0.5;exitY=1;exitDx=0;exitDy=0;entryX=0.5;entryY=0;entryDx=0;entryDy=0;entryPerimeter=0;" edge="1" parent="WIyWlLk6GJQsqaUBKTNV-1" source="kwb_6JemSEw58xybTESs-4" target="kwb_6JemSEw58xybTESs-1">
          <mxGeometry relative="1" as="geometry" />
        </mxCell>
        <mxCell id="kwb_6JemSEw58xybTESs-17" style="edgeStyle=orthogonalEdgeStyle;rounded=0;orthogonalLoop=1;jettySize=auto;html=1;exitX=0.5;exitY=1;exitDx=0;exitDy=0;entryX=0.5;entryY=0;entryDx=0;entryDy=0;" edge="1" parent="WIyWlLk6GJQsqaUBKTNV-1" source="kwb_6JemSEw58xybTESs-9" target="kwb_6JemSEw58xybTESs-16">
          <mxGeometry relative="1" as="geometry" />
        </mxCell>
        <mxCell id="kwb_6JemSEw58xybTESs-9" value="Username" style="shape=manualInput;whiteSpace=wrap;html=1;" vertex="1" parent="WIyWlLk6GJQsqaUBKTNV-1">
          <mxGeometry x="175" y="80" width="80" height="80" as="geometry" />
        </mxCell>
        <mxCell id="kwb_6JemSEw58xybTESs-16" value="Name" style="html=1;dashed=0;whiteSpace=wrap;shape=partialRectangle;right=0;" vertex="1" parent="WIyWlLk6GJQsqaUBKTNV-1">
          <mxGeometry x="165" y="190" width="100" height="30" as="geometry" />
        </mxCell>
        <mxCell id="kwb_6JemSEw58xybTESs-19" style="edgeStyle=orthogonalEdgeStyle;rounded=0;orthogonalLoop=1;jettySize=auto;html=1;entryX=0.5;entryY=0;entryDx=0;entryDy=0;entryPerimeter=0;" edge="1" parent="WIyWlLk6GJQsqaUBKTNV-1" source="kwb_6JemSEw58xybTESs-16" target="kwb_6JemSEw58xybTESs-1">
          <mxGeometry relative="1" as="geometry" />
        </mxCell>
        <mxCell id="kwb_6JemSEw58xybTESs-26" style="edgeStyle=orthogonalEdgeStyle;rounded=0;orthogonalLoop=1;jettySize=auto;html=1;exitX=0.5;exitY=1;exitDx=0;exitDy=0;entryX=0.5;entryY=0;entryDx=0;entryDy=0;" edge="1" parent="WIyWlLk6GJQsqaUBKTNV-1" source="kwb_6JemSEw58xybTESs-23" target="kwb_6JemSEw58xybTESs-25">
          <mxGeometry relative="1" as="geometry" />
        </mxCell>
        <mxCell id="kwb_6JemSEw58xybTESs-23" value="Command" style="shape=manualInput;whiteSpace=wrap;html=1;" vertex="1" parent="WIyWlLk6GJQsqaUBKTNV-1">
          <mxGeometry x="45" y="270" width="80" height="80" as="geometry" />
        </mxCell>
        <mxCell id="kwb_6JemSEw58xybTESs-27" value="Yes" style="edgeStyle=orthogonalEdgeStyle;rounded=0;orthogonalLoop=1;jettySize=auto;html=1;exitX=1;exitY=0.5;exitDx=0;exitDy=0;" edge="1" parent="WIyWlLk6GJQsqaUBKTNV-1" source="kwb_6JemSEw58xybTESs-25">
          <mxGeometry relative="1" as="geometry">
            <mxPoint x="174.99999999999977" y="404.8620689655173" as="targetPoint" />
          </mxGeometry>
        </mxCell>
        <mxCell id="kwb_6JemSEw58xybTESs-29" value="No" style="edgeStyle=orthogonalEdgeStyle;rounded=0;orthogonalLoop=1;jettySize=auto;html=1;exitX=0.5;exitY=1;exitDx=0;exitDy=0;entryX=0.5;entryY=0;entryDx=0;entryDy=0;" edge="1" parent="WIyWlLk6GJQsqaUBKTNV-1" source="kwb_6JemSEw58xybTESs-25" target="kwb_6JemSEw58xybTESs-28">
          <mxGeometry relative="1" as="geometry" />
        </mxCell>
        <mxCell id="kwb_6JemSEw58xybTESs-25" value="Start Game" style="shape=rhombus;html=1;dashed=0;whiteSpace=wrap;perimeter=rhombusPerimeter;" vertex="1" parent="WIyWlLk6GJQsqaUBKTNV-1">
          <mxGeometry x="55" y="380" width="60" height="50" as="geometry" />
        </mxCell>
        <mxCell id="kwb_6JemSEw58xybTESs-30" value="Yes" style="edgeStyle=orthogonalEdgeStyle;rounded=0;orthogonalLoop=1;jettySize=auto;html=1;exitX=1;exitY=0.5;exitDx=0;exitDy=0;" edge="1" parent="WIyWlLk6GJQsqaUBKTNV-1" source="kwb_6JemSEw58xybTESs-28">
          <mxGeometry relative="1" as="geometry">
            <mxPoint x="179.99999999999977" y="499.6896551724137" as="targetPoint" />
          </mxGeometry>
        </mxCell>
        <mxCell id="kwb_6JemSEw58xybTESs-38" value="No" style="edgeStyle=orthogonalEdgeStyle;rounded=0;orthogonalLoop=1;jettySize=auto;html=1;exitX=0.5;exitY=1;exitDx=0;exitDy=0;entryX=0.5;entryY=0;entryDx=0;entryDy=0;" edge="1" parent="WIyWlLk6GJQsqaUBKTNV-1" source="kwb_6JemSEw58xybTESs-28" target="kwb_6JemSEw58xybTESs-37">
          <mxGeometry relative="1" as="geometry" />
        </mxCell>
        <mxCell id="kwb_6JemSEw58xybTESs-28" value="Get Highscore" style="shape=rhombus;html=1;dashed=0;whiteSpace=wrap;perimeter=rhombusPerimeter;" vertex="1" parent="WIyWlLk6GJQsqaUBKTNV-1">
          <mxGeometry x="50" y="470" width="70" height="60" as="geometry" />
        </mxCell>
        <mxCell id="kwb_6JemSEw58xybTESs-31" value="Game System" style="shape=offPageConnector;whiteSpace=wrap;html=1;" vertex="1" parent="WIyWlLk6GJQsqaUBKTNV-1">
          <mxGeometry x="175" y="365" width="80" height="80" as="geometry" />
        </mxCell>
        <mxCell id="kwb_6JemSEw58xybTESs-32" value="Retrieve Stored &quot;Highscore&quot;" style="html=1;dashed=0;whiteSpace=wrap;" vertex="1" parent="WIyWlLk6GJQsqaUBKTNV-1">
          <mxGeometry x="175" y="475" width="100" height="50" as="geometry" />
        </mxCell>
        <mxCell id="kwb_6JemSEw58xybTESs-35" style="edgeStyle=orthogonalEdgeStyle;rounded=0;orthogonalLoop=1;jettySize=auto;html=1;entryX=1.008;entryY=0.955;entryDx=0;entryDy=0;entryPerimeter=0;" edge="1" parent="WIyWlLk6GJQsqaUBKTNV-1" source="kwb_6JemSEw58xybTESs-33" target="kwb_6JemSEw58xybTESs-1">
          <mxGeometry relative="1" as="geometry">
            <mxPoint x="295" y="240" as="targetPoint" />
            <Array as="points">
              <mxPoint x="325" y="570" />
              <mxPoint x="325" y="240" />
              <mxPoint x="155" y="240" />
              <mxPoint x="155" y="239" />
            </Array>
          </mxGeometry>
        </mxCell>
        <mxCell id="kwb_6JemSEw58xybTESs-33" value="&quot;Highscore&quot;" style="shape=display;whiteSpace=wrap;html=1;" vertex="1" parent="WIyWlLk6GJQsqaUBKTNV-1">
          <mxGeometry x="185" y="555" width="80" height="40" as="geometry" />
        </mxCell>
        <mxCell id="kwb_6JemSEw58xybTESs-34" style="edgeStyle=orthogonalEdgeStyle;rounded=0;orthogonalLoop=1;jettySize=auto;html=1;exitX=0.5;exitY=1;exitDx=0;exitDy=0;entryX=0;entryY=0;entryDx=40;entryDy=0;entryPerimeter=0;" edge="1" parent="WIyWlLk6GJQsqaUBKTNV-1" source="kwb_6JemSEw58xybTESs-32" target="kwb_6JemSEw58xybTESs-33">
          <mxGeometry relative="1" as="geometry" />
        </mxCell>
        <mxCell id="kwb_6JemSEw58xybTESs-40" value="Yes" style="edgeStyle=orthogonalEdgeStyle;rounded=0;orthogonalLoop=1;jettySize=auto;html=1;exitX=0.5;exitY=1;exitDx=0;exitDy=0;" edge="1" parent="WIyWlLk6GJQsqaUBKTNV-1" source="kwb_6JemSEw58xybTESs-37">
          <mxGeometry relative="1" as="geometry">
            <mxPoint x="84.9655172413793" y="670" as="targetPoint" />
          </mxGeometry>
        </mxCell>
        <mxCell id="kwb_6JemSEw58xybTESs-43" value="No" style="edgeStyle=orthogonalEdgeStyle;rounded=0;orthogonalLoop=1;jettySize=auto;html=1;" edge="1" parent="WIyWlLk6GJQsqaUBKTNV-1" source="kwb_6JemSEw58xybTESs-37">
          <mxGeometry relative="1" as="geometry">
            <mxPoint x="325" y="570" as="targetPoint" />
          </mxGeometry>
        </mxCell>
        <mxCell id="kwb_6JemSEw58xybTESs-37" value="Terminate" style="shape=rhombus;html=1;dashed=0;whiteSpace=wrap;perimeter=rhombusPerimeter;" vertex="1" parent="WIyWlLk6GJQsqaUBKTNV-1">
          <mxGeometry x="55" y="590" width="60" height="50" as="geometry" />
        </mxCell>
        <mxCell id="kwb_6JemSEw58xybTESs-45" value="Game System" style="shape=offPageConnector;whiteSpace=wrap;html=1;" vertex="1" parent="WIyWlLk6GJQsqaUBKTNV-1">
          <mxGeometry x="570" y="40" width="80" height="80" as="geometry" />
        </mxCell>
        <mxCell id="kwb_6JemSEw58xybTESs-48" value="Num of other players" style="shape=manualInput;whiteSpace=wrap;html=1;" vertex="1" parent="WIyWlLk6GJQsqaUBKTNV-1">
          <mxGeometry x="570" y="140" width="80" height="80" as="geometry" />
        </mxCell>
        <mxCell id="kwb_6JemSEw58xybTESs-49" style="edgeStyle=orthogonalEdgeStyle;rounded=0;orthogonalLoop=1;jettySize=auto;html=1;exitX=0.5;exitY=1;exitDx=0;exitDy=0;entryX=0.504;entryY=0.125;entryDx=0;entryDy=0;entryPerimeter=0;" edge="1" parent="WIyWlLk6GJQsqaUBKTNV-1" source="kwb_6JemSEw58xybTESs-45" target="kwb_6JemSEw58xybTESs-48">
          <mxGeometry relative="1" as="geometry" />
        </mxCell>
        <mxCell id="kwb_6JemSEw58xybTESs-50" value="Gather Names (num players)" style="html=1;dashed=0;whiteSpace=wrap;shape=mxgraph.dfd.loop" vertex="1" parent="WIyWlLk6GJQsqaUBKTNV-1">
          <mxGeometry x="555" y="250" width="110" height="30" as="geometry" />
        </mxCell>
        <mxCell id="kwb_6JemSEw58xybTESs-51" style="edgeStyle=orthogonalEdgeStyle;rounded=0;orthogonalLoop=1;jettySize=auto;html=1;exitX=0.5;exitY=1;exitDx=0;exitDy=0;entryX=0.5;entryY=0;entryDx=0;entryDy=0;entryPerimeter=0;" edge="1" parent="WIyWlLk6GJQsqaUBKTNV-1" source="kwb_6JemSEw58xybTESs-48" target="kwb_6JemSEw58xybTESs-50">
          <mxGeometry relative="1" as="geometry" />
        </mxCell>
        <mxCell id="kwb_6JemSEw58xybTESs-58" style="edgeStyle=orthogonalEdgeStyle;rounded=0;orthogonalLoop=1;jettySize=auto;html=1;exitX=0.5;exitY=1;exitDx=0;exitDy=0;entryX=0.5;entryY=0;entryDx=0;entryDy=0;" edge="1" parent="WIyWlLk6GJQsqaUBKTNV-1" source="kwb_6JemSEw58xybTESs-52" target="kwb_6JemSEw58xybTESs-57">
          <mxGeometry relative="1" as="geometry" />
        </mxCell>
        <mxCell id="kwb_6JemSEw58xybTESs-52" value="Name of player" style="shape=manualInput;whiteSpace=wrap;html=1;" vertex="1" parent="WIyWlLk6GJQsqaUBKTNV-1">
          <mxGeometry x="570" y="300" width="80" height="80" as="geometry" />
        </mxCell>
        <mxCell id="kwb_6JemSEw58xybTESs-53" style="edgeStyle=orthogonalEdgeStyle;rounded=0;orthogonalLoop=1;jettySize=auto;html=1;exitX=0.5;exitY=1;exitDx=0;exitDy=0;exitPerimeter=0;entryX=0.504;entryY=0.125;entryDx=0;entryDy=0;entryPerimeter=0;" edge="1" parent="WIyWlLk6GJQsqaUBKTNV-1" source="kwb_6JemSEw58xybTESs-50" target="kwb_6JemSEw58xybTESs-52">
          <mxGeometry relative="1" as="geometry" />
        </mxCell>
        <mxCell id="kwb_6JemSEw58xybTESs-59" value="No" style="edgeStyle=orthogonalEdgeStyle;rounded=0;orthogonalLoop=1;jettySize=auto;html=1;exitX=1;exitY=0.5;exitDx=0;exitDy=0;entryX=0.992;entryY=0.438;entryDx=0;entryDy=0;entryPerimeter=0;" edge="1" parent="WIyWlLk6GJQsqaUBKTNV-1" source="kwb_6JemSEw58xybTESs-57" target="kwb_6JemSEw58xybTESs-50">
          <mxGeometry relative="1" as="geometry">
            <mxPoint x="719.9999999999998" y="370.0000000000001" as="targetPoint" />
          </mxGeometry>
        </mxCell>
        <mxCell id="kwb_6JemSEw58xybTESs-60" value="Yes" style="edgeStyle=orthogonalEdgeStyle;rounded=0;orthogonalLoop=1;jettySize=auto;html=1;exitX=0.5;exitY=1;exitDx=0;exitDy=0;" edge="1" parent="WIyWlLk6GJQsqaUBKTNV-1" source="kwb_6JemSEw58xybTESs-57">
          <mxGeometry relative="1" as="geometry">
            <mxPoint x="610.3103448275863" y="500" as="targetPoint" />
          </mxGeometry>
        </mxCell>
        <mxCell id="kwb_6JemSEw58xybTESs-57" value="Iter == numPlayers" style="shape=rhombus;html=1;dashed=0;whiteSpace=wrap;perimeter=rhombusPerimeter;" vertex="1" parent="WIyWlLk6GJQsqaUBKTNV-1">
          <mxGeometry x="560" y="410" width="100" height="60" as="geometry" />
        </mxCell>
        <mxCell id="kwb_6JemSEw58xybTESs-62" value="Number of Holes" style="shape=manualInput;whiteSpace=wrap;html=1;" vertex="1" parent="WIyWlLk6GJQsqaUBKTNV-1">
          <mxGeometry x="570" y="490" width="80" height="80" as="geometry" />
        </mxCell>
        <mxCell id="kwb_6JemSEw58xybTESs-63" value="For num of holes" style="html=1;dashed=0;whiteSpace=wrap;shape=mxgraph.dfd.loop" vertex="1" parent="WIyWlLk6GJQsqaUBKTNV-1">
          <mxGeometry x="570" y="600" width="80" height="30" as="geometry" />
        </mxCell>
        <mxCell id="kwb_6JemSEw58xybTESs-64" style="edgeStyle=orthogonalEdgeStyle;rounded=0;orthogonalLoop=1;jettySize=auto;html=1;exitX=0.5;exitY=1;exitDx=0;exitDy=0;entryX=0.5;entryY=0;entryDx=0;entryDy=0;entryPerimeter=0;" edge="1" parent="WIyWlLk6GJQsqaUBKTNV-1" source="kwb_6JemSEw58xybTESs-62" target="kwb_6JemSEw58xybTESs-63">
          <mxGeometry relative="1" as="geometry" />
        </mxCell>
        <mxCell id="kwb_6JemSEw58xybTESs-70" style="edgeStyle=orthogonalEdgeStyle;rounded=0;orthogonalLoop=1;jettySize=auto;html=1;exitX=0.5;exitY=1;exitDx=0;exitDy=0;entryX=0.5;entryY=0;entryDx=0;entryDy=0;" edge="1" parent="WIyWlLk6GJQsqaUBKTNV-1" source="kwb_6JemSEw58xybTESs-66" target="kwb_6JemSEw58xybTESs-68">
          <mxGeometry relative="1" as="geometry" />
        </mxCell>
        <mxCell id="kwb_6JemSEw58xybTESs-66" value="Current player Stroke count" style="shape=manualInput;whiteSpace=wrap;html=1;" vertex="1" parent="WIyWlLk6GJQsqaUBKTNV-1">
          <mxGeometry x="570" y="710" width="80" height="80" as="geometry" />
        </mxCell>
        <mxCell id="kwb_6JemSEw58xybTESs-75" value="Yes" style="edgeStyle=orthogonalEdgeStyle;rounded=0;orthogonalLoop=1;jettySize=auto;html=1;exitX=0.5;exitY=1;exitDx=0;exitDy=0;" edge="1" parent="WIyWlLk6GJQsqaUBKTNV-1" source="kwb_6JemSEw58xybTESs-68">
          <mxGeometry relative="1" as="geometry">
            <mxPoint x="610.3103448275863" y="890" as="targetPoint" />
          </mxGeometry>
        </mxCell>
        <mxCell id="kwb_6JemSEw58xybTESs-68" value="Iter == players" style="shape=rhombus;html=1;dashed=0;whiteSpace=wrap;perimeter=rhombusPerimeter;" vertex="1" parent="WIyWlLk6GJQsqaUBKTNV-1">
          <mxGeometry x="580" y="810" width="60" height="50" as="geometry" />
        </mxCell>
        <mxCell id="kwb_6JemSEw58xybTESs-71" value="For num of players" style="html=1;dashed=0;whiteSpace=wrap;shape=mxgraph.dfd.loop" vertex="1" parent="WIyWlLk6GJQsqaUBKTNV-1">
          <mxGeometry x="570" y="660" width="80" height="30" as="geometry" />
        </mxCell>
        <mxCell id="kwb_6JemSEw58xybTESs-72" style="edgeStyle=orthogonalEdgeStyle;rounded=0;orthogonalLoop=1;jettySize=auto;html=1;exitX=0.5;exitY=1;exitDx=0;exitDy=0;exitPerimeter=0;entryX=0.5;entryY=0;entryDx=0;entryDy=0;entryPerimeter=0;" edge="1" parent="WIyWlLk6GJQsqaUBKTNV-1" source="kwb_6JemSEw58xybTESs-63" target="kwb_6JemSEw58xybTESs-71">
          <mxGeometry relative="1" as="geometry" />
        </mxCell>
        <mxCell id="kwb_6JemSEw58xybTESs-73" style="edgeStyle=orthogonalEdgeStyle;rounded=0;orthogonalLoop=1;jettySize=auto;html=1;exitX=0.5;exitY=1;exitDx=0;exitDy=0;exitPerimeter=0;entryX=0.504;entryY=0.13;entryDx=0;entryDy=0;entryPerimeter=0;" edge="1" parent="WIyWlLk6GJQsqaUBKTNV-1" source="kwb_6JemSEw58xybTESs-71" target="kwb_6JemSEw58xybTESs-66">
          <mxGeometry relative="1" as="geometry" />
        </mxCell>
        <mxCell id="kwb_6JemSEw58xybTESs-74" value="No" style="edgeStyle=orthogonalEdgeStyle;rounded=0;orthogonalLoop=1;jettySize=auto;html=1;exitX=1;exitY=0.5;exitDx=0;exitDy=0;entryX=1.013;entryY=0.38;entryDx=0;entryDy=0;entryPerimeter=0;" edge="1" parent="WIyWlLk6GJQsqaUBKTNV-1" source="kwb_6JemSEw58xybTESs-68" target="kwb_6JemSEw58xybTESs-71">
          <mxGeometry relative="1" as="geometry">
            <Array as="points">
              <mxPoint x="670" y="835" />
              <mxPoint x="670" y="671" />
            </Array>
          </mxGeometry>
        </mxCell>
        <mxCell id="kwb_6JemSEw58xybTESs-88" style="edgeStyle=orthogonalEdgeStyle;rounded=0;orthogonalLoop=1;jettySize=auto;html=1;exitX=0;exitY=0;exitDx=40;exitDy=40;exitPerimeter=0;entryX=0.5;entryY=0;entryDx=0;entryDy=0;" edge="1" parent="WIyWlLk6GJQsqaUBKTNV-1" source="kwb_6JemSEw58xybTESs-79" target="kwb_6JemSEw58xybTESs-84">
          <mxGeometry relative="1" as="geometry" />
        </mxCell>
        <mxCell id="kwb_6JemSEw58xybTESs-79" value="Leaderboard" style="shape=display;whiteSpace=wrap;html=1;" vertex="1" parent="WIyWlLk6GJQsqaUBKTNV-1">
          <mxGeometry x="575" y="970" width="80" height="40" as="geometry" />
        </mxCell>
        <mxCell id="kwb_6JemSEw58xybTESs-80" value="Sort Scores" style="html=1;dashed=0;whiteSpace=wrap;" vertex="1" parent="WIyWlLk6GJQsqaUBKTNV-1">
          <mxGeometry x="565" y="890" width="100" height="50" as="geometry" />
        </mxCell>
        <mxCell id="kwb_6JemSEw58xybTESs-82" style="edgeStyle=orthogonalEdgeStyle;rounded=0;orthogonalLoop=1;jettySize=auto;html=1;exitX=0.5;exitY=1;exitDx=0;exitDy=0;entryX=0;entryY=0;entryDx=40;entryDy=0;entryPerimeter=0;" edge="1" parent="WIyWlLk6GJQsqaUBKTNV-1" source="kwb_6JemSEw58xybTESs-80" target="kwb_6JemSEw58xybTESs-79">
          <mxGeometry relative="1" as="geometry" />
        </mxCell>
        <mxCell id="kwb_6JemSEw58xybTESs-87" value="No" style="edgeStyle=orthogonalEdgeStyle;rounded=0;orthogonalLoop=1;jettySize=auto;html=1;exitX=1;exitY=0.5;exitDx=0;exitDy=0;entryX=0;entryY=0.5;entryDx=0;entryDy=0;" edge="1" parent="WIyWlLk6GJQsqaUBKTNV-1" source="kwb_6JemSEw58xybTESs-84" target="kwb_6JemSEw58xybTESs-86">
          <mxGeometry relative="1" as="geometry" />
        </mxCell>
        <mxCell id="kwb_6JemSEw58xybTESs-91" value="Yes" style="edgeStyle=orthogonalEdgeStyle;rounded=0;orthogonalLoop=1;jettySize=auto;html=1;exitX=0;exitY=0.5;exitDx=0;exitDy=0;" edge="1" parent="WIyWlLk6GJQsqaUBKTNV-1" source="kwb_6JemSEw58xybTESs-84">
          <mxGeometry relative="1" as="geometry">
            <mxPoint x="449.9999999999998" y="1054.8620689655172" as="targetPoint" />
          </mxGeometry>
        </mxCell>
        <mxCell id="kwb_6JemSEw58xybTESs-84" value="Final Hole" style="shape=rhombus;html=1;dashed=0;whiteSpace=wrap;perimeter=rhombusPerimeter;" vertex="1" parent="WIyWlLk6GJQsqaUBKTNV-1">
          <mxGeometry x="585" y="1030" width="60" height="50" as="geometry" />
        </mxCell>
        <mxCell id="kwb_6JemSEw58xybTESs-89" style="edgeStyle=orthogonalEdgeStyle;rounded=0;orthogonalLoop=1;jettySize=auto;html=1;exitX=0.5;exitY=0;exitDx=0;exitDy=0;entryX=1.013;entryY=0.518;entryDx=0;entryDy=0;entryPerimeter=0;" edge="1" parent="WIyWlLk6GJQsqaUBKTNV-1" source="kwb_6JemSEw58xybTESs-86" target="kwb_6JemSEw58xybTESs-63">
          <mxGeometry relative="1" as="geometry">
            <mxPoint x="710.3103448275863" y="650" as="targetPoint" />
          </mxGeometry>
        </mxCell>
        <mxCell id="kwb_6JemSEw58xybTESs-86" value="15sec Delay" style="shape=delay;whiteSpace=wrap;html=1;" vertex="1" parent="WIyWlLk6GJQsqaUBKTNV-1">
          <mxGeometry x="670" y="1035" width="80" height="40" as="geometry" />
        </mxCell>
        <mxCell id="kwb_6JemSEw58xybTESs-93" style="edgeStyle=orthogonalEdgeStyle;rounded=0;orthogonalLoop=1;jettySize=auto;html=1;" edge="1" parent="WIyWlLk6GJQsqaUBKTNV-1" source="kwb_6JemSEw58xybTESs-92">
          <mxGeometry relative="1" as="geometry">
            <mxPoint x="400" y="990" as="targetPoint" />
          </mxGeometry>
        </mxCell>
        <mxCell id="kwb_6JemSEw58xybTESs-92" value="Await User pressing &quot;enter&quot;" style="html=1;dashed=0;whiteSpace=wrap;" vertex="1" parent="WIyWlLk6GJQsqaUBKTNV-1">
          <mxGeometry x="350" y="1030" width="100" height="50" as="geometry" />
        </mxCell>
        <mxCell id="kwb_6JemSEw58xybTESs-97" value="End Pgrm" style="html=1;dashed=0;whiteSpace=wrap;shape=mxgraph.dfd.start" vertex="1" parent="WIyWlLk6GJQsqaUBKTNV-1">
          <mxGeometry x="40" y="670" width="90" height="30" as="geometry" />
        </mxCell>
        <mxCell id="kwb_6JemSEw58xybTESs-98" value="Go to cmd loop" style="html=1;dashed=0;whiteSpace=wrap;shape=mxgraph.dfd.start" vertex="1" parent="WIyWlLk6GJQsqaUBKTNV-1">
          <mxGeometry x="355" y="960" width="90" height="30" as="geometry" />
        </mxCell>
      </root>
    </mxGraphModel>
  </diagram>
</mxfile>
